<svg xmlns="http://www.w3.org/2000/svg" width="128" height="128" viewBox="0 0 331 289">
  <defs>
    <linearGradient id="logoGradient" x1="0%" y1="0%" x2="100%" y2="100%">
      <stop offset="0%" style="stop-color:#4338CA"/>
      <stop offset="100%" style="stop-color:#3730A3"/>
    </linearGradient>
  </defs>
  <circle cx="165.5" cy="144.5" r="144.5" fill="white"/>
  <path 
    d="M1570 2576 c0 -85 9 -78 -115 -91 -33 -4 -98 -18 -144 -31 -285 -83
    -489 -256 -613 -521 -42 -90 -81 -229 -93 -330 l-7 -63 -64 0 -64 0 0 -90 0
    -89 63 -3 62 -3 7 -74 c33 -329 234 -619 533 -768 109 -55 237 -91 378 -108
    l57 -6 0 -75 0 -74 95 0 95 0 0 80 0 80 29 0 c69 0 281 56 281 74 0 13 -71
    219 -79 228 -3 4 -44 -4 -90 -18 -46 -13 -96 -24 -112 -24 l-29 0 0 70 0 70
    -95 0 -95 0 0 -76 0 -76 -27 6 c-16 3 -48 8 -72 12 -137 20 -280 93 -382 194
    -114 113 -189 267 -205 423 l-7 67 77 0 76 0 0 90 0 90 -78 0 -79 0 9 67 c39
    288 225 512 493 592 39 12 98 25 133 29 l62 9 0 -79 0 -78 95 0 95 0 0 76 0
    77 52 -7 c161 -22 334 -110 440 -224 97 -106 168 -283 168 -423 l0 -39 -60 0
    -60 0 0 -90 0 -90 55 0 c54 0 55 -1 55 -28 0 -15 -10 -48 -22 -72 -53 -105
    -199 -107 -252 -4 -20 36 -21 59 -24 352 l-3 312 -100 0 c-97 0 -99 0 -99 -23
    l0 -23 -60 28 c-283 136 -613 6 -709 -279 -65 -192 -16 -420 118 -554 102
    -101 226 -145 386 -136 107 6 184 32 242 82 23 19 44 35 48 35 4 0 27 -17 51
    -39 71 -62 148 -86 279 -86 122 0 175 14 253 68 77 52 151 194 169 325 l6 42
    83 0 84 0 0 90 0 90 -79 0 -78 0 -6 75 c-21 249 -155 506 -340 653 -139 110
    -328 190 -508 214 l-89 12 0 78 0 78 -95 0 -95 0 0 -74z m192 -907 c75 -38
    117 -149 103 -274 -14 -132 -98 -205 -236 -205 -131 0 -224 87 -236 221 -10
    108 37 218 108 255 72 37 192 38 261 3z"
    transform="scale(0.09) translate(165, 144.5)"
    fill="url(#logoGradient)"
  />
</svg>
